<svg id="Layer_1" data-name="Layer 1" xmlns="http://www.w3.org/2000/svg" viewBox="0 0 1080 1080"><defs><style>.cls-1{fill:#fff;}</style></defs><title>logotype shenoto svg-2</title><path class="cls-1" d="M789.74,475v45.62a7.5,7.5,0,0,1-1.4,4.75,11.77,11.77,0,0,1-4.34,3.4,25,25,0,0,1-6.76,2,43.68,43.68,0,0,1-7.1.58h-1.75a48,48,0,0,1-7.15-.54,24,24,0,0,1-6.78-2,11.58,11.58,0,0,1-4.32-3.42,7.62,7.62,0,0,1-1.44-4.82V475H724.37v45.62a7.46,7.46,0,0,1-1.42,4.75,11.61,11.61,0,0,1-4.34,3.4,24.79,24.79,0,0,1-6.75,2,43.68,43.68,0,0,1-7.1.58H703a48,48,0,0,1-7.15-.54,24,24,0,0,1-6.78-2,11.69,11.69,0,0,1-4.33-3.42,7.65,7.65,0,0,1-1.42-4.82V475h-22.5v43.09q0,.79.06,1.56v1c0,2.41-.3,3.85-1,4.82a11.05,11.05,0,0,1-4.07,3.36,22.63,22.63,0,0,1-6.35,2,39.76,39.76,0,0,1-6.69.57H641.1a42.85,42.85,0,0,1-6.75-.54,22.22,22.22,0,0,1-6.37-2,11,11,0,0,1-4.05-3.39c-.67-.91-.7-2.36-.7-4.88V478.41l-.07-3.37H600.63v45.72a7.51,7.51,0,0,1-1.42,4.76,11.7,11.7,0,0,1-4.36,3.41,25.51,25.51,0,0,1-6.76,2.05,45,45,0,0,1-7.1.57h-1.81A47.89,47.89,0,0,1,572,531a24.58,24.58,0,0,1-6.81-2,11.7,11.7,0,0,1-4.33-3.43,7.65,7.65,0,0,1-1.43-4.82V474.53l-1-1c-2.34-2.42-17.52-5.37-31.89-5.37-11.87,0-29,1.91-43.05,11A33,33,0,0,0,472.6,490.9a30.54,30.54,0,0,0-3.94,15.28,31.33,31.33,0,0,0,3.71,15.18,33.7,33.7,0,0,0,10.35,11.43,49.79,49.79,0,0,0,15.61,7.06,76.24,76.24,0,0,0,20,2.44,55.76,55.76,0,0,0,18.58-2.94V556c0,1.29,0,2.17-.06,2.69s-.08,1.18-.08,1.6v3.37h22.54V540.85c1,.25,1.92.48,2.92.69a84.78,84.78,0,0,0,17.23,1.58c13.6,0,24.25-2.08,31.64-6.2.27-.14.52-.29.78-.44l.44.26a44.42,44.42,0,0,0,12.61,4.66A76.42,76.42,0,0,0,641.31,543c13.14,0,23-2,30.15-6.23l.66-.4.73.41A47.79,47.79,0,0,0,686,541.41a84.61,84.61,0,0,0,17.2,1.58c13.77,0,24.09-2,31.56-6.18.59-.34,1.17-.68,1.74-1,.55.35,1.12.68,1.7,1a47.79,47.79,0,0,0,13.18,4.64,84.61,84.61,0,0,0,17.2,1.58c13.77,0,24.09-2,31.56-6.18,8-4.47,12.07-10.75,12.07-18.68V475ZM495.43,515.56a23.66,23.66,0,0,1-1.9-9.73c0-7.79,2.35-13.58,7.18-17.7s11.8-6.32,20.43-6.33c4.5.12,8.27.35,11.17.68,1.68.2,3.23.42,4.63.67l-.06,43.66a37.15,37.15,0,0,1-6.41,1.45,74.82,74.82,0,0,1-10.12.63A37.2,37.2,0,0,1,509,527.26a23.32,23.32,0,0,1-8.28-4.55A20.34,20.34,0,0,1,495.43,515.56Z"/><path class="cls-1" d="M442.13,520.76a7.51,7.51,0,0,1-1.41,4.76,11.62,11.62,0,0,1-4.35,3.4A25.56,25.56,0,0,1,429.6,531a45.19,45.19,0,0,1-7.1.57h-1.81a47.89,47.89,0,0,1-7.14-.55,24.58,24.58,0,0,1-6.81-2,11.62,11.62,0,0,1-4.33-3.43,7.61,7.61,0,0,1-1.43-4.82V476.07l0-1.53-1-1c-2.34-2.42-17.52-5.37-31.89-5.37-11.87,0-29,1.91-43.06,11a32.9,32.9,0,0,0-10.91,11.76,30.65,30.65,0,0,0-3.94,15.28,31.27,31.27,0,0,0,3.71,15.18,33.62,33.62,0,0,0,10.35,11.43,49.79,49.79,0,0,0,15.61,7.06,76.1,76.1,0,0,0,20,2.44,55.86,55.86,0,0,0,18.59-2.94V556c0,1.32,0,2.22-.06,2.69-.05.64-.08,1.18-.08,1.6v3.37h22.53V540.85c1,.25,1.93.48,2.92.69a84.88,84.88,0,0,0,17.24,1.58c13.59,0,24.23-2.08,31.64-6.19,8-4.48,12.09-10.78,12.09-18.72V475H442.13Zm-105.19-5.19a23.77,23.77,0,0,1-1.9-9.74c0-7.79,2.35-13.58,7.18-17.7s11.79-6.32,20.42-6.33c4.51.12,8.27.35,11.18.68,1.68.2,3.23.42,4.63.67l-.06,43.66a37.47,37.47,0,0,1-6.42,1.45,74.56,74.56,0,0,1-10.11.63,37.2,37.2,0,0,1-11.39-1.63,23.45,23.45,0,0,1-8.29-4.55A20.49,20.49,0,0,1,336.94,515.57Z"/><path class="cls-1" d="M750.18,469.07a13,13,0,1,0-13-13A13,13,0,0,0,750.18,469.07Z"/><path class="cls-1" d="M724.23,469.07a13,13,0,1,0-13-13A13,13,0,0,0,724.23,469.07Z"/><path class="cls-1" d="M438.27,469.07a13,13,0,1,0-13-13A13,13,0,0,0,438.27,469.07Z"/><path class="cls-1" d="M412.33,469.07a13,13,0,1,0-13-13A13,13,0,0,0,412.33,469.07Z"/><path class="cls-1" d="M737.21,443.13a13,13,0,1,0-13-13A13,13,0,0,0,737.21,443.13Z"/><path class="cls-1" d="M580.51,469.07a13,13,0,1,0-13-13A13,13,0,0,0,580.51,469.07Z"/></svg>