<svg id="Layer_1" data-name="Layer 1" xmlns="http://www.w3.org/2000/svg" viewBox="0 0 1080 1080"><defs><style>.cls-1{fill:#ee3c39;stroke:#ee3c39;stroke-miterlimit:10;stroke-width:2.29px;}</style></defs><title>logotype shenoto svg</title><path class="cls-1" d="M768.54,465.82v45.62a7.44,7.44,0,0,1-1.41,4.75,11.65,11.65,0,0,1-4.33,3.4,25.45,25.45,0,0,1-6.76,2,44.83,44.83,0,0,1-7.1.58h-1.75a48.16,48.16,0,0,1-7.16-.55,24.14,24.14,0,0,1-6.78-2,11.66,11.66,0,0,1-4.32-3.42,7.67,7.67,0,0,1-1.43-4.82V465.82H703.16v45.62a7.46,7.46,0,0,1-1.41,4.75,11.69,11.69,0,0,1-4.34,3.4,25.34,25.34,0,0,1-6.76,2,44.64,44.64,0,0,1-7.1.58h-1.74a47.93,47.93,0,0,1-7.15-.55,24,24,0,0,1-6.79-2,11.66,11.66,0,0,1-4.32-3.42,7.65,7.65,0,0,1-1.43-4.82V465.82H639.63v43.09q0,.79.06,1.56v1c0,2.41-.31,3.85-1,4.82a11.22,11.22,0,0,1-4.07,3.36,22.73,22.73,0,0,1-6.35,2,39.77,39.77,0,0,1-6.69.58h-1.67a42.74,42.74,0,0,1-6.74-.55,21.82,21.82,0,0,1-6.37-2,11.06,11.06,0,0,1-4.06-3.39c-.66-.91-.7-2.36-.7-4.88V469.2l-.07-3.38H579.42v45.72A7.45,7.45,0,0,1,578,516.3a11.58,11.58,0,0,1-4.35,3.41,25.69,25.69,0,0,1-6.77,2,44.88,44.88,0,0,1-7.09.57H558a47.89,47.89,0,0,1-7.14-.55,24.38,24.38,0,0,1-6.81-2,11.62,11.62,0,0,1-4.33-3.43,7.59,7.59,0,0,1-1.43-4.82V466.85l0-1.53-1-1c-2.35-2.42-17.52-5.37-31.89-5.37-11.87,0-29,1.91-43.05,11a32.93,32.93,0,0,0-10.92,11.76A30.58,30.58,0,0,0,447.45,497a31.33,31.33,0,0,0,3.71,15.18,33.73,33.73,0,0,0,10.36,11.43,49.63,49.63,0,0,0,15.6,7.06,76.29,76.29,0,0,0,20,2.44,55.86,55.86,0,0,0,18.59-2.94v16.63c0,1.3,0,2.17-.07,2.69s-.07,1.18-.07,1.6v3.37h22.53V531.63c1,.25,1.93.48,2.92.69a85,85,0,0,0,17.24,1.58c13.6,0,24.24-2.08,31.64-6.2l.77-.44.44.26a44.23,44.23,0,0,0,12.61,4.66,76.42,76.42,0,0,0,16.41,1.59c13.15,0,23-2,30.16-6.23l.66-.4c.24.14.48.28.73.41a47.79,47.79,0,0,0,13.18,4.64A84.51,84.51,0,0,0,682,533.77c13.77,0,24.09-2,31.57-6.18.59-.34,1.17-.68,1.73-1,.55.35,1.12.68,1.71,1a47.67,47.67,0,0,0,13.18,4.64,84.54,84.54,0,0,0,17.2,1.58c13.76,0,24.08-2,31.56-6.18,8-4.47,12.07-10.75,12.07-18.68V465.82ZM474.23,506.34a23.66,23.66,0,0,1-1.91-9.73c0-7.79,2.36-13.58,7.19-17.7s11.79-6.32,20.42-6.33c4.51.12,8.27.35,11.18.68,1.67.2,3.22.42,4.62.67l-.05,43.66a37.58,37.58,0,0,1-6.41,1.45,74.82,74.82,0,0,1-10.12.63A37.2,37.2,0,0,1,487.76,518a23.36,23.36,0,0,1-8.29-4.55A20.32,20.32,0,0,1,474.23,506.34Z"/><path class="cls-1" d="M420.93,511.54a7.45,7.45,0,0,1-1.42,4.76,11.74,11.74,0,0,1-4.35,3.41,25.85,25.85,0,0,1-6.76,2,45.22,45.22,0,0,1-7.11.57h-1.81a47.76,47.76,0,0,1-7.13-.55,24.38,24.38,0,0,1-6.81-2,11.57,11.57,0,0,1-4.34-3.43,7.67,7.67,0,0,1-1.43-4.82V465.32l-1-1c-2.34-2.42-17.51-5.37-31.88-5.37-11.88,0-29,1.91-43.06,11a33,33,0,0,0-10.92,11.76A30.67,30.67,0,0,0,289,497a31.27,31.27,0,0,0,3.71,15.18A33.65,33.65,0,0,0,303,523.57a49.63,49.63,0,0,0,15.6,7.06,76.24,76.24,0,0,0,20,2.44,55.86,55.86,0,0,0,18.59-2.94v16.63c0,1.32,0,2.22-.07,2.69-.05.64-.07,1.18-.07,1.6v3.37h22.53V531.63c.95.25,1.93.48,2.92.69a84.78,84.78,0,0,0,17.23,1.58c13.6,0,24.24-2.08,31.64-6.19,8-4.48,12.09-10.77,12.09-18.72V465.82H420.93Zm-105.2-5.19a23.77,23.77,0,0,1-1.9-9.74c0-7.79,2.35-13.58,7.19-17.7s11.78-6.32,20.41-6.33c4.52.12,8.28.35,11.19.68,1.67.2,3.22.42,4.62.67l-.05,43.66a37.58,37.58,0,0,1-6.43,1.45,74.3,74.3,0,0,1-10.1.63,37.31,37.31,0,0,1-11.4-1.63,23.49,23.49,0,0,1-8.28-4.55A20.52,20.52,0,0,1,315.73,506.35Z"/><path class="cls-1" d="M729,459.85a13,13,0,1,0-13-13A13,13,0,0,0,729,459.85Z"/><path class="cls-1" d="M703,459.85a13,13,0,1,0-13-13A13,13,0,0,0,703,459.85Z"/><path class="cls-1" d="M417.07,459.85a13,13,0,1,0-13-13A13,13,0,0,0,417.07,459.85Z"/><path class="cls-1" d="M391.12,459.85a13,13,0,1,0-13-13A13,13,0,0,0,391.12,459.85Z"/><path class="cls-1" d="M716,433.91a13,13,0,1,0-13-13A13,13,0,0,0,716,433.91Z"/><path class="cls-1" d="M559.31,459.85a13,13,0,1,0-13-13A13,13,0,0,0,559.31,459.85Z"/></svg>