    <svg
      width='81'
      height='24'
      viewBox="0 0 81 24"
      fill="none"
      xmlns="http://www.w3.org/2000/svg"
    >
      <g clipPath="url(#clip0_1008_20338)">
        <path
          d="M77.2536 9.40182V16.6525C77.2536 16.914 77.1688 17.1684 77.0119 17.3776L76.2869 17.8609L75.1993 18.2235H72.7824L71.6948 17.8609L70.9697 17.2567C70.8128 17.0475 70.728 16.7931 70.728 16.5317V9.28097H66.861V16.5317C66.861 16.7931 66.7762 17.0475 66.6193 17.2567L65.8942 17.7401L64.8066 18.1026H62.2689L61.1813 17.7401L60.4562 17.1359C60.2993 16.9267 60.2145 16.6723 60.2145 16.4108V9.16013H56.5892V16.29C56.6179 16.5382 56.576 16.7895 56.4684 17.015L55.8641 17.4984L54.8974 18.3443H52.4805L51.5137 17.9818L50.9095 17.4984C50.8076 17.2711 50.766 17.0214 50.7886 16.7733V9.52266H47.1633V16.7733C47.1633 17.0348 47.0785 17.2892 46.9216 17.4984L46.1965 17.9818L45.1089 18.3443H42.5712L41.4836 17.9818L40.7585 17.3776C40.6017 17.1684 40.5168 16.914 40.5168 16.6525V9.40182H40.396C40.0335 9.03928 37.6166 8.5559 35.3205 8.5559C32.9001 8.50336 30.5135 9.13141 28.4324 10.3686C27.7189 10.8651 27.138 11.529 26.7406 12.3021C26.3314 13.0411 26.1231 13.8744 26.1363 14.719C26.1286 15.5629 26.3366 16.3949 26.7406 17.1359C27.1505 17.7621 27.6853 18.2969 28.3115 18.7069C29.0878 19.2142 29.9466 19.5822 30.8493 19.7945C31.8764 20.0511 32.9326 20.1729 33.9912 20.157C35.0186 20.1706 36.0406 20.0071 37.0124 19.6736V22.3322C37.0124 22.5739 37.0124 22.6947 37.0124 22.8156V23.6615H40.6377V20.0361H41.1211L43.9005 20.2778C45.6464 20.3828 47.3909 20.0505 48.976 19.3111H49.2177L51.272 20.0361L53.9306 20.2778C55.5987 20.3843 57.2655 20.0509 58.7644 19.3111H59.0061L61.0604 20.0361L63.8399 20.2778C65.5861 20.388 67.3319 20.0554 68.9153 19.3111H69.5196L71.5739 20.0361L74.3534 20.2778C76.0996 20.388 77.8454 20.0554 79.4288 19.3111C80.011 19.0514 80.5044 18.6269 80.848 18.09C81.1916 17.5531 81.3704 16.9274 81.3624 16.29V9.40182H77.2536ZM36.8915 17.7401L35.9248 17.9818H34.2329L32.4203 17.7401L31.091 17.015C30.7348 16.7168 30.4464 16.346 30.2451 15.9274C30.0116 15.4363 29.8879 14.9002 29.8825 14.3564C29.848 13.8417 29.9276 13.3256 30.1156 12.8452C30.3036 12.3647 30.5954 11.9317 30.9701 11.577C31.9095 10.8797 33.0653 10.5372 34.2329 10.6103H36.7707L36.8915 17.7401Z"
          fill='#EE3A3A'
          stroke='#EE3A3A'
          strokeWidth="0.3"
          strokeMiterlimit="10"
        />
        <path
          d="M21.7859 16.7733C21.7859 17.0348 21.7011 17.2892 21.5442 17.4984L20.8191 17.9818L19.8523 18.3443H17.1938L16.1062 17.9818L15.3811 17.3776C15.2242 17.1684 15.1394 16.914 15.1394 16.6525V9.40182H15.0186C14.656 9.03928 12.2391 8.5559 9.94309 8.5559C7.52262 8.50336 5.13601 9.13141 3.05494 10.3686C2.34143 10.8651 1.76053 11.529 1.36312 12.3021C0.953996 13.0411 0.745669 13.8744 0.758893 14.719C0.751165 15.5629 0.959148 16.3949 1.36312 17.1359C1.77031 17.7643 2.30566 18.2997 2.9341 18.7069C3.71035 19.2142 4.56913 19.5822 5.47183 19.7945C6.499 20.0511 7.55518 20.1729 8.6138 20.157C9.64113 20.1706 10.6631 20.0071 11.6349 19.6736V22.3322C11.6349 22.5739 11.6349 22.735 11.6349 22.8156V23.6615H15.2603V20.0361H15.7436L18.5231 20.2778C20.2686 20.3777 22.0119 20.0457 23.5985 19.3111C24.1807 19.0514 24.6741 18.6269 25.0177 18.09C25.3613 17.5531 25.5401 16.9274 25.532 16.29V9.40182H21.9067L21.7859 16.7733ZM11.6349 17.7401L10.6682 17.9818H8.97633L7.16366 17.7401L5.83437 17.015C5.47819 16.7168 5.18979 16.346 4.98846 15.9274C4.75502 15.4363 4.63131 14.9002 4.62592 14.3564C4.59144 13.8417 4.67104 13.3256 4.85904 12.8452C5.04705 12.3647 5.33882 11.9317 5.71352 11.577C6.65288 10.8797 7.8087 10.5372 8.97633 10.6103H11.5141L11.6349 17.7401Z"
          fill='#EE3A3A'
          stroke='#EE3A3A'
          strokeWidth="0.3"
          strokeMiterlimit="10"
        />
        <path
          d="M70.9699 8.55598C72.1045 8.55598 73.0242 7.63622 73.0242 6.50163C73.0242 5.36703 72.1045 4.44727 70.9699 4.44727C69.8353 4.44727 68.9155 5.36703 68.9155 6.50163C68.9155 7.63622 69.8353 8.55598 70.9699 8.55598Z"
          fill='#EE3A3A'
          stroke='#EE3A3A'
          strokeWidth="0.3"
          strokeMiterlimit="10"
        />
        <path
          d="M66.861 8.55598C67.9956 8.55598 68.9154 7.63622 68.9154 6.50163C68.9154 5.36703 67.9956 4.44727 66.861 4.44727C65.7264 4.44727 64.8066 5.36703 64.8066 6.50163C64.8066 7.63622 65.7264 8.55598 66.861 8.55598Z"
          fill='#EE3A3A'
          stroke='#EE3A3A'
          strokeWidth="0.3"
          strokeMiterlimit="10"
        />
        <path
          d="M21.1818 8.55598C22.3164 8.55598 23.2362 7.63622 23.2362 6.50163C23.2362 5.36703 22.3164 4.44727 21.1818 4.44727C20.0472 4.44727 19.1274 5.36703 19.1274 6.50163C19.1274 7.63622 20.0472 8.55598 21.1818 8.55598Z"
          fill='#EE3A3A'
          stroke='#EE3A3A'
          strokeWidth="0.3"
          strokeMiterlimit="10"
        />
        <path
          d="M17.0732 8.55598C18.2077 8.55598 19.1275 7.63622 19.1275 6.50163C19.1275 5.36703 18.2077 4.44727 17.0732 4.44727C15.9386 4.44727 15.0188 5.36703 15.0188 6.50163C15.0188 7.63622 15.9386 8.55598 17.0732 8.55598Z"
          fill='#EE3A3A'
          stroke='#EE3A3A'
          strokeWidth="0.3"
          strokeMiterlimit="10"
        />
        <path
          d="M68.9154 4.44722C70.05 4.44722 70.9698 3.52745 70.9698 2.39286C70.9698 1.25827 70.05 0.338501 68.9154 0.338501C67.7808 0.338501 66.8611 1.25827 66.8611 2.39286C66.8611 3.52745 67.7808 4.44722 68.9154 4.44722Z"
          fill='#EE3A3A'
          stroke='#EE3A3A'
          strokeWidth="0.3"
          strokeMiterlimit="10"
        />
        <path
          d="M43.9006 8.55598C45.0351 8.55598 45.9549 7.63622 45.9549 6.50163C45.9549 5.36703 45.0351 4.44727 43.9006 4.44727C42.766 4.44727 41.8462 5.36703 41.8462 6.50163C41.8462 7.63622 42.766 8.55598 43.9006 8.55598Z"
          fill='#EE3A3A'
          stroke='#EE3A3A'
          strokeWidth="0.3"
          strokeMiterlimit="10"
        />
      </g>
      <defs>
        <clipPath id="clip0_1008_20338">
          <rect
            width="80.4826"
            height="23.8064"
            fill="white"
            transform="translate(0.517334 0.0968018)"
          />
        </clipPath>
      </defs>
    </svg>